<svg xmlns="http://www.w3.org/2000/svg"
     width="350" height="1064"><style>text { font-family: Roboto, sans-serif; font-size: 7.5pt; fill: grey; }

path,
circle {
  stroke: black;
}
</style><g transform="translate(150,20)"><g class="threshold" transform="translate(0,1024)"><path d="M0 0H50"></path><text x="50" dx="10" dy="0.3em">1</text></g><g class="threshold" transform="translate(0,1011)"><path d="M0 0H50"></path><text x="50" dx="10" dy="0.3em">5</text></g><g class="threshold" transform="translate(0,991)"><path d="M0 0H50"></path><text x="50" dx="10" dy="0.3em">17 performance evenings</text></g><g class="threshold" transform="translate(0,943)"><path d="M0 0H50"></path><text x="50" dx="10" dy="0.3em">74</text></g><g class="threshold" transform="translate(0,667)"><path d="M0 0H50"></path><text x="50" dx="10" dy="0.3em">1,197</text></g><path class="side" d="M25 1024V1011"></path><path class="side" d="M0 1011V991M 50 1011V991"></path><path class="side" d="M0 991V943M 50 991V943"></path><path class="side" d="M25 943V667"></path><g class="outlier" transform="translate(25,656)"><circle r="2.5" fill="none"></circle><text dy="0.3em" x="-10" text-anchor="end">Destouches  1,269</text></g><g class="outlier" transform="translate(25,579)"><circle r="2.5" fill="none"></circle><text dy="0.3em" x="10" text-anchor="start">Du Fresny  1,844</text></g><g class="outlier" transform="translate(25,524)"><circle r="2.5" fill="none"></circle><text dy="0.3em" x="-10" text-anchor="end">Hauteroche  2,313</text></g><g class="outlier" transform="translate(25,518)"><circle r="2.5" fill="none"></circle><text dy="0.3em" x="10" text-anchor="start">Legrand  2,371</text></g><g class="outlier" transform="translate(25,494)"><circle r="2.5" fill="none"></circle><text dy="0.3em" x="-10" text-anchor="end">Voltaire  2,591</text></g><g class="outlier" transform="translate(25,469)"><circle r="2.5" fill="none"></circle><text dy="0.3em" x="10" text-anchor="start">Corneille  2,840</text></g><g class="outlier" transform="translate(25,444)"><circle r="2.5" fill="none"></circle><text dy="0.3em" x="-10" text-anchor="end">Racine  3,097</text></g><g class="outlier" transform="translate(25,431)"><circle r="2.5" fill="none"></circle><text dy="0.3em" x="10" text-anchor="start">Regnard  3,230</text></g><g class="outlier" transform="translate(25,271)"><circle r="2.5" fill="none"></circle><text dy="0.3em" x="-10" text-anchor="end">Dancourt  5,168</text></g><g class="outlier" transform="translate(25,0)"><circle r="2.5" fill="none"></circle><text dy="0.3em" x="10" text-anchor="start">Molière  9,495</text></g></g></svg>
