<svg xmlns="http://www.w3.org/2000/svg"
     width="350" height="1064"><style>text { font-family: Roboto, sans-serif; font-size: 7.5pt; fill: grey; }

path,
circle {
  stroke: black;
}

.axis line {
  opacity: 0.1;
}
.axis text {
  opacity: 0.5;
}

.axis path {
  visibility: hidden;
}
</style><g transform="translate(150,20)"><g class="threshold" transform="translate(0,1024)"><path d="M0 0H50"></path><text x="50" dx="10" dy="0.3em">1</text></g><g class="threshold" transform="translate(0,1011)"><path d="M0 0H50"></path><text x="50" dx="10" dy="0.3em">5</text></g><g class="threshold" transform="translate(0,991)"><path d="M0 0H50"></path><text x="50" dx="10" dy="0.3em">17 performance evenings</text></g><g class="threshold" transform="translate(0,943)"><path d="M0 0H50"></path><text x="50" dx="10" dy="0.3em">74</text></g><g class="threshold" transform="translate(0,667)"><path d="M0 0H50"></path><text x="50" dx="10" dy="0.3em">1,197</text></g><path class="side" d="M25 1024V1011"></path><path class="side" d="M0 1011V991M 50 1011V991"></path><path class="side" d="M0 991V943M 50 991V943"></path><path class="side" d="M25 943V667"></path><g class="outlier" transform="translate(25,656)"><circle r="2.5" fill="none"></circle><text dy="0.3em" x="-10" text-anchor="end">Destouches  1,269</text></g><g class="outlier" transform="translate(25,579)"><circle r="2.5" fill="none"></circle><text dy="0.3em" x="10" text-anchor="start">Du Fresny  1,844</text></g><g class="outlier" transform="translate(25,524)"><circle r="2.5" fill="none"></circle><text dy="0.3em" x="-10" text-anchor="end">Hauteroche  2,313</text></g><g class="outlier" transform="translate(25,518)"><circle r="2.5" fill="none"></circle><text dy="0.3em" x="10" text-anchor="start">Legrand  2,371</text></g><g class="outlier" transform="translate(25,494)"><circle r="2.5" fill="none"></circle><text dy="0.3em" x="-10" text-anchor="end">Voltaire  2,591</text></g><g class="outlier" transform="translate(25,469)"><circle r="2.5" fill="none"></circle><text dy="0.3em" x="10" text-anchor="start">Corneille  2,840</text></g><g class="outlier" transform="translate(25,444)"><circle r="2.5" fill="none"></circle><text dy="0.3em" x="-10" text-anchor="end">Racine  3,097</text></g><g class="outlier" transform="translate(25,431)"><circle r="2.5" fill="none"></circle><text dy="0.3em" x="10" text-anchor="start">Regnard  3,230</text></g><g class="outlier" transform="translate(25,271)"><circle r="2.5" fill="none"></circle><text dy="0.3em" x="-10" text-anchor="end">Dancourt  5,168</text></g><g class="outlier" transform="translate(25,0)"><circle r="2.5" fill="none"></circle><text dy="0.3em" x="10" text-anchor="start">Molière  9,495</text></g></g><g class="axis y" transform="translate(0,20)" fill="none" font-size="10" font-family="sans-serif" text-anchor="end"><path class="domain" stroke="#000" d="M-6,1024.5H0.5V0.5H-6"></path><g class="tick" opacity="1" transform="translate(0,797.1976713694651)"><line stroke="#000" x2="-6" y1="0.5" y2="0.5" x1="350"></line><text fill="#000" x="25" y="0.5" dy="1.2em" text-anchor="left">500</text></g><g class="tick" opacity="1" transform="translate(0,698.8550553843397)"><line stroke="#000" x2="-6" y1="0.5" y2="0.5" x1="350"></line><text fill="#000" x="25" y="0.5" dy="1.2em" text-anchor="left">1,000</text></g><g class="tick" opacity="1" transform="translate(0,623.3941120705022)"><line stroke="#000" x2="-6" y1="0.5" y2="0.5" x1="350"></line><text fill="#000" x="25" y="0.5" dy="1.2em" text-anchor="left">1,500</text></g><g class="tick" opacity="1" transform="translate(0,559.7775940989266)"><line stroke="#000" x2="-6" y1="0.5" y2="0.5" x1="350"></line><text fill="#000" x="25" y="0.5" dy="1.2em" text-anchor="left">2,000</text></g><g class="tick" opacity="1" transform="translate(0,503.7303166398267)"><line stroke="#000" x2="-6" y1="0.5" y2="0.5" x1="350"></line><text fill="#000" x="25" y="0.5" dy="1.2em" text-anchor="left">2,500</text></g><g class="tick" opacity="1" transform="translate(0,453.0597046350299)"><line stroke="#000" x2="-6" y1="0.5" y2="0.5" x1="350"></line><text fill="#000" x="25" y="0.5" dy="1.2em" text-anchor="left">3,000</text></g><g class="tick" opacity="1" transform="translate(0,406.4632679284199)"><line stroke="#000" x2="-6" y1="0.5" y2="0.5" x1="350"></line><text fill="#000" x="25" y="0.5" dy="1.2em" text-anchor="left">3,500</text></g><g class="tick" opacity="1" transform="translate(0,363.0923621286761)"><line stroke="#000" x2="-6" y1="0.5" y2="0.5" x1="350"></line><text fill="#000" x="25" y="0.5" dy="1.2em" text-anchor="left">4,000</text></g><g class="tick" opacity="1" transform="translate(0,322.35751682838804)"><line stroke="#000" x2="-6" y1="0.5" y2="0.5" x1="350"></line><text fill="#000" x="25" y="0.5" dy="1.2em" text-anchor="left">4,500</text></g><g class="tick" opacity="1" transform="translate(0,283.82954221192915)"><line stroke="#000" x2="-6" y1="0.5" y2="0.5" x1="350"></line><text fill="#000" x="25" y="0.5" dy="1.2em" text-anchor="left">5,000</text></g><g class="tick" opacity="1" transform="translate(0,247.18443463644098)"><line stroke="#000" x2="-6" y1="0.5" y2="0.5" x1="350"></line><text fill="#000" x="25" y="0.5" dy="1.2em" text-anchor="left">5,500</text></g><g class="tick" opacity="1" transform="translate(0,212.17047550100062)"><line stroke="#000" x2="-6" y1="0.5" y2="0.5" x1="350"></line><text fill="#000" x="25" y="0.5" dy="1.2em" text-anchor="left">6,000</text></g><g class="tick" opacity="1" transform="translate(0,178.58748621645464)"><line stroke="#000" x2="-6" y1="0.5" y2="0.5" x1="350"></line><text fill="#000" x="25" y="0.5" dy="1.2em" text-anchor="left">6,500</text></g><g class="tick" opacity="1" transform="translate(0,146.27316275225314)"><line stroke="#000" x2="-6" y1="0.5" y2="0.5" x1="350"></line><text fill="#000" x="25" y="0.5" dy="1.2em" text-anchor="left">7,000</text></g><g class="tick" opacity="1" transform="translate(0,115.09374331592983)"><line stroke="#000" x2="-6" y1="0.5" y2="0.5" x1="350"></line><text fill="#000" x="25" y="0.5" dy="1.2em" text-anchor="left">7,500</text></g><g class="tick" opacity="1" transform="translate(0,84.93743955784953)"><line stroke="#000" x2="-6" y1="0.5" y2="0.5" x1="350"></line><text fill="#000" x="25" y="0.5" dy="1.2em" text-anchor="left">8,000</text></g><g class="tick" opacity="1" transform="translate(0,55.70969241126659)"><line stroke="#000" x2="-6" y1="0.5" y2="0.5" x1="350"></line><text fill="#000" x="25" y="0.5" dy="1.2em" text-anchor="left">8,500</text></g><g class="tick" opacity="1" transform="translate(0,27.329668873012338)"><line stroke="#000" x2="-6" y1="0.5" y2="0.5" x1="350"></line><text fill="#000" x="25" y="0.5" dy="1.2em" text-anchor="left">9,000</text></g></g></svg>